<?xml version="1.0" encoding="UTF-8" standalone="no"?>
<!DOCTYPE svg PUBLIC "-//W3C//DTD SVG 1.1//EN" "http://www.w3.org/Graphics/SVG/1.1/DTD/svg11.dtd">
<svg width="100%" height="100%" viewBox="0 0 387 318" version="1.1" xmlns="http://www.w3.org/2000/svg" xmlns:xlink="http://www.w3.org/1999/xlink" xml:space="preserve" xmlns:serif="http://www.serif.com/" style="fill-rule:evenodd;clip-rule:evenodd;stroke-linejoin:round;stroke-miterlimit:2;">
    <g transform="matrix(1,0,0,1,-1535.26,-300.422)">
        <g>
            <g transform="matrix(1,0,0,1,0,-13.593)">
                <g transform="matrix(0.57261,0,0,0.636396,1674.47,-710.365)">
                    <path d="M94.649,2087.06C207.77,2067.92 296.032,1998.43 300.799,1946.39C309.878,1847.29 202.967,1849.62 188.037,1850.75C115.259,1856.23 94.649,1923.76 94.649,1923.76L94.648,1923.76C123.296,1882.94 180.593,1882.94 209.241,1903.35C237.89,1923.76 237.89,1964.59 209.241,2005.41C189.187,2036.03 126.161,2070.05 94.648,2087.06" style="fill:rgb(250,50,150);"/>
                </g>
                <g transform="matrix(0.631017,0,0,0.631017,880.026,-482.578)">
                    <path d="M1394.34,1624.56C1394.34,1624.56 1379.84,1531.52 1447.26,1538.05C1514.68,1544.57 1476.98,1556.89 1476.98,1556.89C1476.98,1556.89 1425.51,1550.13 1394.34,1624.56Z" style="fill:rgb(250,50,150);"/>
                </g>
                <g transform="matrix(-0.57261,0,0,0.636396,1782.86,-710.365)">
                    <path d="M94.649,2087.06C207.77,2067.92 296.032,1998.43 300.799,1946.39C309.878,1847.29 202.967,1849.62 188.037,1850.75C115.259,1856.23 94.649,1923.76 94.649,1923.76L94.648,1923.76C123.296,1882.94 180.593,1882.94 209.241,1903.35C237.89,1923.76 237.89,1964.59 209.241,2005.41C189.187,2036.03 126.161,2070.05 94.648,2087.06" style="fill:rgb(250,50,150);"/>
                </g>
                <g transform="matrix(-0.631017,0,0,0.631017,2577.3,-482.578)">
                    <path d="M1394.34,1624.56C1394.34,1624.56 1379.84,1531.52 1447.26,1538.05C1514.68,1544.57 1476.98,1556.89 1476.98,1556.89C1476.98,1556.89 1425.51,1550.13 1394.34,1624.56Z" style="fill:rgb(250,50,150);"/>
                </g>
                <g transform="matrix(0.481712,0,0,0.521371,1240.68,-275.155)">
                    <path d="M1065.52,1712.76C1065.52,1715.88 1062.78,1718.41 1059.4,1718.41C1056.03,1718.41 1053.29,1715.88 1053.29,1712.76L1053.29,1581.14C1053.29,1581 1053.29,1580.85 1053.3,1580.71C1053.3,1580.71 1053.93,1572.96 1057.63,1565.1C1060.31,1559.41 1064.59,1553.76 1071.01,1550.43C1077.84,1546.88 1087.26,1545.67 1100.2,1550.63C1107.25,1553.34 1111.58,1559 1114,1565.02C1117.19,1572.95 1116.99,1581.26 1116.99,1581.26C1116.92,1584.38 1114.12,1586.86 1110.74,1586.79C1107.37,1586.72 1104.68,1584.13 1104.76,1581.02C1104.76,1581.02 1104.9,1574.85 1102.53,1568.96C1101.25,1565.76 1099.25,1562.51 1095.51,1561.08C1087.3,1557.93 1081.34,1558.03 1077.01,1560.29C1073,1562.37 1070.53,1566.06 1068.85,1569.62C1066.31,1575 1065.64,1580.32 1065.52,1581.39L1065.52,1712.76Z" style="fill:rgb(250,50,150);"/>
                </g>
                <g transform="matrix(-0.481712,0,0,0.521371,2221.7,-275.155)">
                    <path d="M1053.29,1712.76C1053.29,1715.88 1056.03,1718.41 1059.4,1718.41C1062.78,1718.41 1065.52,1715.88 1065.52,1712.76C1065.52,1712.76 1065.52,1581.39 1065.53,1581.38C1065.64,1580.31 1066.31,1575 1068.85,1569.62C1070.53,1566.06 1073,1562.37 1077.01,1560.29C1081.34,1558.03 1087.3,1557.93 1095.51,1561.08C1099.25,1562.51 1101.25,1565.76 1102.53,1568.96C1104.9,1574.85 1104.76,1581.02 1104.76,1581.02C1104.68,1584.13 1107.37,1586.72 1110.74,1586.79C1114.12,1586.86 1116.92,1584.38 1116.99,1581.26C1116.99,1581.26 1117.19,1572.95 1114,1565.02C1111.58,1559 1107.25,1553.34 1100.2,1550.63C1087.26,1545.67 1077.84,1546.88 1071.01,1550.43C1064.59,1553.76 1060.31,1559.41 1057.63,1565.1C1053.93,1572.96 1053.3,1580.71 1053.3,1580.71C1053.29,1580.85 1053.29,1581 1053.29,1581.14L1053.29,1712.76Z" style="fill:rgb(250,50,150);"/>
                </g>
                <g transform="matrix(0.631017,0,0,0.631017,879.64,-490.264)">
                    <circle cx="1278.78" cy="1477.57" r="27.693" style="fill:rgb(250,50,150);"/>
                </g>
                <g transform="matrix(0.631017,0,0,0.631017,963.433,-490.264)">
                    <circle cx="1278.78" cy="1477.57" r="27.693" style="fill:rgb(250,50,150);"/>
                </g>
                <g transform="matrix(0.37332,0,0,0.37332,1310.45,-126.975)">
                    <circle cx="1278.78" cy="1477.57" r="27.693" style="fill:rgb(250,50,150);"/>
                </g>
            </g>
            <path d="M1563.93,476.157L1556.83,482.407C1553.74,485.121 1549.12,485.121 1546.04,482.407L1538.03,475.354C1536.27,473.804 1535.26,471.573 1535.26,469.228C1535.26,466.883 1536.27,464.651 1538.03,463.101L1718.43,304.286C1724.28,299.135 1733.05,299.135 1738.9,304.286L1919.3,463.101C1921.06,464.651 1922.07,466.883 1922.07,469.228C1922.07,471.573 1921.06,473.804 1919.3,475.354L1911.28,482.407C1908.2,485.121 1903.58,485.121 1900.5,482.407L1893.4,476.157L1901.4,610.089C1901.4,612.142 1900.58,614.111 1899.13,615.562C1897.68,617.014 1895.71,617.829 1893.66,617.829L1884.57,617.829C1882.51,617.829 1880.55,617.014 1879.09,615.562C1877.64,614.111 1876.83,612.142 1876.83,610.089L1868.83,454.526L1738.9,340.14C1733.05,334.99 1724.28,334.99 1718.43,340.14L1588.5,454.526L1580.5,610.089C1580.5,612.142 1579.68,614.111 1578.23,615.562C1576.78,617.014 1574.81,617.829 1572.76,617.829L1563.67,617.829C1561.61,617.829 1559.64,617.014 1558.19,615.562C1556.74,614.111 1555.93,612.142 1555.93,610.089L1563.93,476.157Z" style="fill:rgb(10,100,100);"/>
        </g>
    </g>
</svg>
